# xmcd CD database file
#
# Track frame offsets:
#	150
#	21828
#	48113
#	67535
#	90350
#	108450
#	133710
#	154308
#	177715
#	198860
#	216650
#
# Disc length: 3212 seconds
#
# Revision: 0
# Processed by: cddbd v1.4PL0 Copyright (c) Steve Scherf et al.
# Submitted via: CDex 1.50beta9
#
DISCID=940c8a0b
DTITLE=Takashi "HOTOKE" Nagai - Night People
DYEAR=1900
DGENRE=Blues
TTITLE0=Listen To Me
TTITLE1=Namariiro No Blues Ga Ochitekita
TTITLE2=Night People
TTITLE3=24Hours Love
TTITLE4=Love Sick Boy
TTITLE5=Whisky Oh! Whisky
TTITLE6=Blue Moon
TTITLE7=Midnight Train
TTITLE8=Yoru
TTITLE9=Walkin' In The Midnight
TTITLE10=Sayonara Baby
EXTD=
EXTT0=
EXTT1=
EXTT2=
EXTT3=
EXTT4=
EXTT5=
EXTT6=
EXTT7=
EXTT8=
EXTT9=
EXTT10=
PLAYORDER=
